<svg id='discord' xmlns="http://www.w3.org/2000/svg" viewBox="0 0 24 24" width="24" height="24">
  <path d="M20.317 4.369a19.791 19.791 0 00-4.885-1.515.074.074 0 00-.079.037c-.21.375-.442.864-.608 1.249-1.84-.276-3.68-.276-5.486 0-.177-.393-.42-.874-.633-1.249a.076.076 0 00-.079-.037c-1.657.276-3.27.764-4.885 1.515a.07.07 0 00-.033.027C.533 9.045-.32 13.543.099 18.001a.083.083 0 00.031.057 19.85 19.85 0 005.98 3.024.077.077 0 00.084-.027c.462-.64.874-1.32 1.226-2.057a.076.076 0 00-.041-.101 13.152 13.152 0 01-1.872-.89.078.078 0 01-.008-.127c.126-.094.252-.191.374-.291a.074.074 0 01.078-.01c3.926 1.813 8.18 1.813 12.061 0a.074.074 0 01.079.01c.122.1.248.197.374.291a.078.078 0 01-.006.127 12.509 12.509 0 01-1.873.89.076.076 0 00-.041.101c.364.737.776 1.417 1.226 2.057a.077.077 0 00.084.027 19.871 19.871 0 005.981-3.024.075.075 0 00.031-.057c.5-5.177-.838-9.643-3.992-13.605a.061.061 0 00-.032-.027zm-11.028 9.65c-1.182 0-2.152-1.106-2.152-2.473 0-1.366.957-2.472 2.152-2.472 1.195 0 2.152 1.106 2.152 2.472.001 1.367-.957 2.473-2.152 2.473zm6.398 0c-1.182 0-2.152-1.106-2.152-2.473 0-1.366.957-2.472 2.152-2.472 1.195 0 2.152 1.106 2.152 2.472 0 1.367-.957 2.473-2.152 2.473z"/>
</svg>