<svg aria-hidden="true" style="position: absolute; width: 0; height: 0; overflow: hidden;" version="1.1" xmlns="http://www.w3.org/2000/svg" xmlns:xlink="http://www.w3.org/1999/xlink">
<defs>
<symbol id="icon-twitter" viewBox="0 0 32 32">
<path d="M31.939 6.092c-1.097 0.5-2.369 0.864-3.703 1.027l-0.063 0.006c1.355-0.824 2.374-2.085 2.871-3.584l0.013-0.047c-1.268 0.74-2.673 1.279-4.169 1.579-1.199-1.278-2.898-2.073-4.783-2.073-0.003 0-0.006 0-0.009 0h0c-0.001 0-0.002 0-0.003 0-3.62 0-6.555 2.935-6.555 6.555 0 0 0 0.001 0 0.001v-0c0 0.513 0.060 1.015 0.168 1.499-5.455-0.28-10.253-2.869-13.474-6.8l-0.026-0.033c-0.558 0.936-0.888 2.063-0.888 3.268 0 0.003 0 0.005 0 0.008v-0c0 2.26 1.153 4.255 2.905 5.425-1.095-0.036-2.112-0.336-3.001-0.838l0.033 0.017v0.083c0 0.001 0 0.002 0 0.002 0 3.14 2.224 5.76 5.182 6.372l0.042 0.007c-0.516 0.145-1.108 0.229-1.72 0.229-0.434 0-0.859-0.042-1.269-0.122l0.042 0.007c0.865 2.627 3.274 4.498 6.127 4.549l0.006 0c-2.212 1.75-5.042 2.808-8.119 2.808-0.006 0-0.012 0-0.018 0h0.001c-0.527 0-1.039-0.031-1.547-0.089 2.839 1.847 6.313 2.945 10.043 2.945 0.012 0 0.024 0 0.035-0h-0.002c12.072 0 18.667-9.995 18.667-18.647 0-0.28-0.008-0.564-0.020-0.843 1.292-0.938 2.379-2.064 3.246-3.35l0.030-0.047-0.063-0.027z"></path>
</symbol>
<symbol id="icon-discord" viewBox="0 0 32 32">
<path d="M27.089 5.825c-1.881-0.888-4.066-1.589-6.354-1.997l-0.159-0.023c-0.006-0.001-0.012-0.002-0.019-0.002-0.037 0-0.069 0.020-0.086 0.051l-0 0.001c-0.28 0.5-0.589 1.152-0.811 1.665-1.099-0.176-2.367-0.276-3.657-0.276s-2.558 0.1-3.795 0.294l0.137-0.018c-0.236-0.524-0.56-1.165-0.844-1.665-0.018-0.031-0.050-0.051-0.088-0.051-0.006 0-0.012 0.001-0.018 0.002l0.001-0c-2.442 0.412-4.629 1.115-6.665 2.085l0.151-0.065c-0.018 0.007-0.033 0.020-0.044 0.036l-0 0c-4.128 6.199-5.265 12.196-4.707 18.14 0.003 0.031 0.018 0.058 0.041 0.076l0 0c2.278 1.705 4.927 3.079 7.786 3.981l0.188 0.051c0.009 0.003 0.019 0.005 0.030 0.005 0.033 0 0.063-0.016 0.082-0.040l0-0c0.616-0.853 1.165-1.76 1.635-2.743 0.005-0.012 0.009-0.026 0.009-0.041 0-0.042-0.026-0.078-0.063-0.094l-0.001-0c-0.974-0.375-1.796-0.774-2.579-1.232l0.083 0.045c-0.030-0.019-0.049-0.051-0.049-0.088 0-0.033 0.015-0.062 0.038-0.081l0-0c0.168-0.125 0.336-0.255 0.499-0.388 0.017-0.014 0.039-0.022 0.063-0.022 0.015 0 0.029 0.003 0.042 0.009l-0.001-0c5.235 2.417 10.907 2.417 16.081 0 0.012-0.006 0.027-0.009 0.042-0.009 0.024 0 0.046 0.009 0.063 0.023l-0-0c0.163 0.133 0.331 0.263 0.499 0.388 0.024 0.019 0.040 0.049 0.040 0.082 0 0.037-0.019 0.069-0.047 0.087l-0 0c-0.704 0.419-1.527 0.818-2.383 1.148l-0.114 0.039c-0.037 0.015-0.063 0.052-0.063 0.094 0 0.015 0.003 0.029 0.009 0.041l-0-0.001c0.485 0.983 1.035 1.889 1.635 2.743 0.019 0.025 0.049 0.041 0.082 0.041 0.011 0 0.021-0.002 0.031-0.005l-0.001 0c3.046-0.953 5.696-2.327 8.044-4.082l-0.070 0.050c0.024-0.017 0.040-0.045 0.041-0.076v-0c0.667-6.903-1.117-12.857-5.323-18.14-0.010-0.017-0.024-0.029-0.042-0.036l-0.001-0zM12.385 18.692c-1.576 0-2.869-1.475-2.869-3.297 0-1.821 1.276-3.296 2.869-3.296s2.869 1.475 2.869 3.296c0.001 1.823-1.276 3.297-2.869 3.297zM20.916 18.692c-1.576 0-2.869-1.475-2.869-3.297 0-1.821 1.276-3.296 2.869-3.296s2.869 1.475 2.869 3.296c0 1.823-1.276 3.297-2.869 3.297z"></path>
</symbol>
<symbol id="icon-close" viewBox="0 0 32 32">
<path d="M25.333 8.547l-1.88-1.88-7.453 7.453-7.453-7.453-1.88 1.88 7.453 7.453-7.453 7.453 1.88 1.88 7.453-7.453 7.453 7.453 1.88-1.88-7.453-7.453 7.453-7.453z"></path>
</symbol>
<symbol id="icon-armor" viewBox="0 0 32 32">
<path d="M4.095 0.175c-1.37 0.813-4.069 3.914-4.095 4.727v1.346c0 1.706 1.595 3.206 3.043 3.206 1.739 0 3.187-1.441 3.188-3.151 0 1.71 1.399 3.151 3.138 3.151s3.093-1.441 3.093-3.151c0 1.71 1.488 3.151 3.226 3.151h0.031c1.739 0 3.227-1.441 3.227-3.151 0 1.71 1.354 3.151 3.093 3.151s3.138-1.441 3.138-3.151c0 1.71 1.449 3.151 3.188 3.151 1.448 0 3.043-1.499 3.043-3.206v-1.346c-0.026-0.813-2.725-3.914-4.094-4.727-4.258-0.149-7.21-0.175-11.609-0.175s-10.397 0.069-11.609 0.175zM12.44 8.65c-0.174 0.301-0.377 0.56-0.611 0.787l-0.001 0.001c-0.656 0.642-1.556 1.040-2.548 1.040-0.001 0-0.002 0-0.003 0-0.993 0-1.893-0.397-2.551-1.041l0.001 0.001c-0.238-0.233-0.419-0.482-0.584-0.772l-0.001 0.001c-0.165 0.291-0.396 0.54-0.634 0.773-0.657 0.643-1.557 1.039-2.55 1.039-0.001 0-0.002 0-0.003 0h0c-0.12 0-0.244-0.033-0.345-0.068-0.14 1.456-0.199 2.847-0.22 3.861l-0 0.006c-0.003 0.515-0.005 0.939-0.008 1.527 0.027 3.054-0.302 9.899 1.347 11.581 2.555 0.596 7.258 0.867 11.975 0.869h0.001c4.717-0.002 9.42-0.273 11.975-0.869 1.649-1.682 1.32-8.527 1.347-11.581-0.003-0.588-0.005-1.012-0.008-1.527l-0-0.006c-0.021-1.015-0.080-2.405-0.22-3.861-0.101 0.035-0.225 0.068-0.345 0.068-0.001 0-0.002 0-0.003 0-0.993 0-1.893-0.397-2.551-1.040l0.001 0.001c-0.238-0.233-0.469-0.482-0.634-0.773l-0.001-0.001c-0.166 0.29-0.346 0.539-0.584 0.772-0.657 0.643-1.557 1.040-2.55 1.040-0.001 0-0.002 0-0.004 0h0c-0.992 0-1.892-0.398-2.548-1.040-0.235-0.228-0.438-0.487-0.603-0.771l-0.009-0.017c-0.173 0.301-0.374 0.56-0.606 0.787l-0.001 0.001c-0.657 0.643-1.557 1.040-2.55 1.040-0.001 0-0.002 0-0.004 0h0c-0.035 0-0.069-0.002-0.104-0.003h-0.001c-0.035 0.001-0.069 0.003-0.104 0.003-0.001 0-0.002 0-0.004 0-0.993 0-1.893-0.397-2.551-1.040l0.001 0.001c-0.232-0.228-0.434-0.487-0.597-0.771l-0.009-0.017zM9.817 12.041l-0 0.001h0.002c1.038 0.002 1.961 0 3.104 1.248 0.9-0.094 1.84-0.141 2.78-0.14h0.001c0.941-0.001 1.881 0.046 2.781 0.14 1.143-1.248 2.066-1.245 3.104-1.248h0.002l-0-0.001c0.491 0 2.453 0 3.821 3.841l1.469 5.269c1.088 3.92-0.349 4.016-2.141 4.019-2.658-0.099-4.13-2.029-4.13-3.96-1.471 0.241-3.188 0.362-4.905 0.362h-0.001c-1.717 0-3.433-0.121-4.905-0.362 0 1.93-1.472 3.861-4.13 3.96-1.793-0.003-3.229-0.099-2.141-4.019l1.469-5.269c1.368-3.841 3.33-3.841 3.821-3.841zM15.703 15.060v0.001c-0.003 0.003-2.798 2.57-3.301 3.484l1.831-0.073v1.597c0 0.075 0.735 0.044 1.47 0.010h0.001c0.735 0.034 1.47 0.064 1.47-0.010v-1.597l1.831 0.073c-0.503-0.913-3.301-3.484-3.301-3.484v-0.001l-0 0z"></path>
</symbol>
<symbol id="icon-btn-minus" viewBox="0 0 272 32">
<path d="M0-33.455h593.455v98.909h-593.455z"></path>
</symbol>
</defs>
</svg>
