<svg id='twitter' xmlns="http://www.w3.org/2000/svg" viewBox="0 0 24 24" width="24" height="24">
  <path d="M23.954 4.569c-.885.392-1.83.656-2.825.775 1.014-.611 1.794-1.574 2.163-2.723-.951.555-2.005.959-3.127 1.184-.897-.957-2.178-1.555-3.594-1.555-2.717 0-4.918 2.2-4.918 4.917 0 .385.045.761.126 1.124-4.084-.205-7.702-2.158-10.125-5.125-.423.722-.666 1.561-.666 2.457 0 1.695.865 3.191 2.179 4.069-.803-.026-1.561-.246-2.226-.616v.062c0 2.367 1.685 4.342 3.918 4.786-.411.111-.843.171-1.287.171-.315 0-.623-.03-.924-.086.623 1.951 2.444 3.374 4.6 3.412-1.68 1.318-3.8 2.106-6.102 2.106-.395 0-.779-.023-1.16-.067 2.179 1.397 4.768 2.209 7.557 2.209 9.054 0 14-7.496 14-13.985 0-.21-.006-.423-.015-.632.964-.695 1.8-1.56 2.457-2.548l-.047-.02z"/>
</svg>