<svg xmlns="http://www.w3.org/2000/svg" width="24" height="24" viewBox="0 0 24 24"><path d="M20.317 4.369a19.8 19.8 0 0 0-4.885-1.515.074.074 0 0 0-.079.037c-.21.375-.442.864-.608 1.249a18.3 18.3 0 0 0-5.486 0c-.177-.393-.42-.874-.633-1.249a.08.08 0 0 0-.079-.037 18.8 18.8 0 0 0-4.885 1.515.07.07 0 0 0-.033.027C.533 9.045-.32 13.543.099 18.001a.08.08 0 0 0 .031.057 19.9 19.9 0 0 0 5.98 3.024.08.08 0 0 0 .084-.027c.462-.64.874-1.32 1.226-2.057a.076.076 0 0 0-.041-.101 13 13 0 0 1-1.872-.89.078.078 0 0 1-.008-.127q.19-.141.374-.291a.07.07 0 0 1 .078-.01c3.926 1.813 8.18 1.813 12.061 0a.07.07 0 0 1 .079.01q.184.15.374.291a.078.078 0 0 1-.006.127 12.5 12.5 0 0 1-1.873.89.076.076 0 0 0-.041.101c.364.737.776 1.417 1.226 2.057a.08.08 0 0 0 .084.027 19.9 19.9 0 0 0 5.981-3.024.08.08 0 0 0 .031-.057c.5-5.177-.838-9.643-3.992-13.605a.06.06 0 0 0-.032-.027zm-11.028 9.65c-1.182 0-2.152-1.106-2.152-2.473s.957-2.472 2.152-2.472 2.152 1.106 2.152 2.472c.001 1.367-.957 2.473-2.152 2.473m6.398 0c-1.182 0-2.152-1.106-2.152-2.473s.957-2.472 2.152-2.472 2.152 1.106 2.152 2.472c0 1.367-.957 2.473-2.152 2.473"/></svg>