<svg xmlns="http://www.w3.org/2000/svg" width="24" height="24" viewBox="0 0 24 24"><path d="M23.954 4.569a9.8 9.8 0 0 1-2.825.775 4.96 4.96 0 0 0 2.163-2.723c-.951.555-2.005.959-3.127 1.184a4.92 4.92 0 0 0-3.594-1.555 4.916 4.916 0 0 0-4.918 4.917c0 .385.045.761.126 1.124A13.95 13.95 0 0 1 1.654 3.166a4.84 4.84 0 0 0-.666 2.457c0 1.695.865 3.191 2.179 4.069a4.9 4.9 0 0 1-2.226-.616v.062a4.88 4.88 0 0 0 3.918 4.786 4.9 4.9 0 0 1-2.211.085 4.92 4.92 0 0 0 4.6 3.412 9.86 9.86 0 0 1-6.102 2.106q-.59 0-1.16-.067a13.95 13.95 0 0 0 7.557 2.209c9.054 0 14-7.496 14-13.985q0-.317-.015-.632a9.9 9.9 0 0 0 2.457-2.548l-.047-.02z"/></svg>